<?xml version="1.0" encoding="UTF-8" standalone="no"?>
<svg
   xmlns:dc="http://purl.org/dc/elements/1.1/"
   xmlns:cc="http://creativecommons.org/ns#"
   xmlns:rdf="http://www.w3.org/1999/02/22-rdf-syntax-ns#"
   xmlns:svg="http://www.w3.org/2000/svg"
   xmlns="http://www.w3.org/2000/svg"
   version="1.1"
   id="svg3459"
   viewBox="0 0 368.97526 345.53048"
   height="97.51638mm"
   width="104.13302mm">
  <defs
     id="defs3461">
    <filter
       id="filter3382"
       style="color-interpolation-filters:sRGB">
      <feFlood
         id="feFlood3384"
         result="flood"
         flood-color="rgb(0,0,0)"
         flood-opacity="0.498039" />
      <feComposite
         id="feComposite3386"
         result="composite1"
         operator="in"
         in2="SourceGraphic"
         in="flood" />
      <feGaussianBlur
         id="feGaussianBlur3388"
         result="blur"
         stdDeviation="3"
         in="composite1" />
      <feOffset
         id="feOffset3390"
         result="offset"
         dy="6"
         dx="6" />
      <feComposite
         id="feComposite3392"
         result="composite2"
         operator="over"
         in2="offset"
         in="SourceGraphic" />
    </filter>
  </defs>
  <metadata
     id="metadata3464">
    <rdf:RDF>
      <cc:Work
         rdf:about="">
        <dc:format>image/svg+xml</dc:format>
        <dc:type
           rdf:resource="http://purl.org/dc/dcmitype/StillImage" />
        <dc:title></dc:title>
      </cc:Work>
    </rdf:RDF>
  </metadata>
  <g
     transform="translate(-244.0838,-691.02554)"
     id="layer1">
    <path
       style="fill:#ffffff;fill-rule:evenodd;stroke:#000000;stroke-width:4;stroke-linecap:butt;stroke-linejoin:miter;stroke-opacity:1;filter:url(#filter3382)"
       d="m 395.95941,723.75166 c -74.53361,13.00086 -149.06056,82.00883 -110.72213,154.23078 38.33844,72.22195 163.73884,62.57668 163.73884,62.57668 0,0 3.85581,8.36067 15.02971,20.26557 11.1739,11.9049 55.56141,46.93711 55.56141,46.93711 0,0 -38.55035,-39.46761 -47.05034,-51.81641 -8.49999,-12.3488 -9.0114,-17.80774 -9.0114,-17.80774 0,0 120.1271,-28.26704 118.79459,-119.7197 C 580.96758,726.96528 470.49301,710.7508 395.95941,723.75166 Z"
       id="path4191" />
    <g
       transform="translate(-127.7846,417.10646)"
       id="g4182">
      <rect
         style="color:#000000;display:inline;overflow:visible;visibility:visible;fill:#b5c0e7;fill-opacity:1;fill-rule:evenodd;stroke:#000000;stroke-width:2;stroke-linecap:butt;stroke-linejoin:miter;stroke-miterlimit:4;stroke-dasharray:none;stroke-dashoffset:0;stroke-opacity:1;marker:none;marker-start:none;marker-mid:none;marker-end:none;enable-background:accumulate"
         id="rect4225"
         width="212.20952"
         height="31.967461"
         x="450.76016"
         y="439.20914"
         ry="8.842063" />
      <path
         style="fill:none;fill-rule:evenodd;stroke:#000000;stroke-width:2;stroke-linecap:butt;stroke-linejoin:miter;stroke-opacity:1"
         d="m 586.34516,443.97024 0,23.12539"
         id="path4227" />
      <g
         id="text3367"
         style="font-style:normal;font-weight:normal;font-size:20px;line-height:125%;font-family:Sans;letter-spacing:0px;word-spacing:0px;fill:#000000;fill-opacity:1;stroke:none;stroke-width:1px;stroke-linecap:butt;stroke-linejoin:miter;stroke-opacity:1">
        <path
           id="path3395"
           d="m 532.12537,451.62769 0,1.69921 q -0.76172,-0.39062 -1.58204,-0.58593 -0.82031,-0.19532 -1.69921,-0.19532 -1.33789,0 -2.01172,0.41016 -0.66407,0.41016 -0.66407,1.23047 0,0.625 0.47852,0.98633 0.47852,0.35156 1.92383,0.67383 l 0.61523,0.13671 q 1.91407,0.41016 2.71485,1.16211 0.81054,0.74219 0.81054,2.08008 0,1.52344 -1.21093,2.41211 -1.20118,0.88867 -3.31055,0.88867 -0.87891,0 -1.83594,-0.17578 -0.94726,-0.16601 -2.00195,-0.50781 l 0,-1.85547 q 0.99609,0.51758 1.96289,0.78125 0.9668,0.25391 1.91406,0.25391 1.26953,0 1.95313,-0.42969 0.68359,-0.43945 0.68359,-1.23047 0,-0.73242 -0.49805,-1.12305 -0.48828,-0.39062 -2.1582,-0.75195 l -0.625,-0.14648 q -1.66992,-0.35157 -2.41211,-1.07422 -0.74219,-0.73242 -0.74219,-2.00196 0,-1.54296 1.09375,-2.38281 1.09375,-0.83984 3.10547,-0.83984 0.9961,0 1.875,0.14648 0.87891,0.14649 1.6211,0.43946 z" />
        <path
           id="path3397"
           d="m 537.28162,447.66284 0,5.41992 -1.66016,0 0,-5.41992 1.66016,0 z" />
        <path
           id="path3399"
           d="m 546.06091,456.74487 q -2.17773,0 -3.01758,0.49805 -0.83984,0.49805 -0.83984,1.69922 0,0.95703 0.625,1.52344 0.63477,0.55664 1.71875,0.55664 1.49414,0 2.39258,-1.05469 0.9082,-1.06445 0.9082,-2.82227 l 0,-0.40039 -1.78711,0 z m 3.58399,-0.74218 0,6.24023 -1.79688,0 0,-1.66016 q -0.61523,0.9961 -1.5332,1.47461 -0.91797,0.46875 -2.24609,0.46875 -1.67969,0 -2.67579,-0.9375 -0.98632,-0.94726 -0.98632,-2.52929 0,-1.84571 1.23046,-2.78321 1.24024,-0.9375 3.69141,-0.9375 l 2.51953,0 0,-0.17578 q 0,-1.24023 -0.82031,-1.91406 -0.81055,-0.68359 -2.28516,-0.68359 -0.9375,0 -1.82617,0.2246 -0.88867,0.22461 -1.70898,0.67383 l 0,-1.66015 q 0.98633,-0.38086 1.91406,-0.56641 0.92773,-0.19531 1.80664,-0.19531 2.37305,0 3.54492,1.23047 1.17188,1.23047 1.17188,3.73047 z" />
        <path
           id="path3401"
           d="m 559.69373,452.98511 q -0.30274,-0.17578 -0.66407,-0.25391 -0.35156,-0.0879 -0.78125,-0.0879 -1.52343,0 -2.34375,0.99609 -0.81054,0.98633 -0.81054,2.8418 l 0,5.76172 -1.80664,0 0,-10.9375 1.80664,0 0,1.69922 q 0.5664,-0.9961 1.47461,-1.47461 0.9082,-0.48828 2.20703,-0.48828 0.18554,0 0.41015,0.0293 0.22461,0.0195 0.49805,0.0684 l 0.01,1.84571 z" />
        <path
           id="path3403"
           d="m 570.5238,456.32495 0,0.87891 -8.26172,0 q 0.11719,1.85547 1.11329,2.83203 1.00586,0.9668 2.79296,0.9668 1.03516,0 2.00196,-0.25391 0.97656,-0.25391 1.93359,-0.76172 l 0,1.69922 q -0.9668,0.41016 -1.98242,0.625 -1.01563,0.21484 -2.06055,0.21484 -2.61718,0 -4.15039,-1.52343 -1.52344,-1.52344 -1.52344,-4.1211 0,-2.68555 1.44532,-4.25781 1.45508,-1.58203 3.91601,-1.58203 2.20703,0 3.48633,1.42578 1.28906,1.41601 1.28906,3.85742 z m -1.79687,-0.52734 q -0.0195,-1.47461 -0.83008,-2.35352 -0.80078,-0.8789 -2.12891,-0.8789 -1.5039,0 -2.41211,0.8496 -0.89843,0.84961 -1.03515,2.39258 l 6.40625,-0.01 z" />
        <path
           id="path3405"
           d="m 582.56482,455.64136 0,6.60156 -1.79688,0 0,-6.54297 q 0,-1.55273 -0.60546,-2.32422 -0.60547,-0.77148 -1.81641,-0.77148 -1.45508,0 -2.29492,0.92773 -0.83985,0.92774 -0.83985,2.5293 l 0,6.18164 -1.80664,0 0,-10.9375 1.80664,0 0,1.69922 q 0.64453,-0.98633 1.51368,-1.47461 0.8789,-0.48828 2.02148,-0.48828 1.88477,0 2.85156,1.17187 0.9668,1.16211 0.9668,3.42774 z" />
      </g>
    </g>
  </g>
</svg>
